<?xml version="1.0" encoding="UTF-8" standalone="no"?>
<!DOCTYPE svg PUBLIC "-//W3C//DTD SVG 1.1//EN"
 "http://www.w3.org/Graphics/SVG/1.1/DTD/svg11.dtd">
<!-- Generated by graphviz version 14.0.2 (20251019.1705)
 -->
<!-- Title: Agent Pages: 1 -->
<svg width="149pt" height="108pt"
 viewBox="0.00 0.00 149.00 108.00" xmlns="http://www.w3.org/2000/svg" xmlns:xlink="http://www.w3.org/1999/xlink">
<g id="graph0" class="graph" transform="scale(1 1) rotate(0) translate(4 103.75)">
<title>Agent</title>
<polygon fill="white" stroke="none" points="-4,4 -4,-103.75 145.03,-103.75 145.03,4 -4,4"/>
<!-- Agent -->
<g id="node1" class="node">
<title>Agent</title>
<g id="a_node1"><a xlink:href="../Agent" xlink:title="&lt;FONT POINT&#45;SIZE=&quot;10&quot;&gt;cdm1:Agent&lt;/FONT&gt;">
<polygon fill="none" stroke="black" points="94.62,-36 40.62,-36 40.62,0 94.62,0 94.62,-36"/>
<text xml:space="preserve" text-anchor="start" x="41.38" y="-14.12" font-family="sans-serif" font-size="10.00">cdm1:Agent</text>
</a>
</g>
</g>
<!-- Agent&#45;&gt;Agent -->
<g id="edge2" class="edge">
<title>Agent&#45;&gt;Agent</title>
<path fill="none" stroke="black" d="M94.95,-12.17C101.12,-12.69 105.62,-14.64 105.62,-18 105.62,-18.42 105.55,-18.82 105.42,-19.19"/>
<polygon fill="none" stroke="black" points="104.06,-15.97 96.34,-23.22 106.9,-22.37 104.06,-15.97"/>
</g>
<!-- ITSAgentThing -->
<g id="node2" class="node">
<title>ITSAgentThing</title>
<g id="a_node2"><a xlink:href="../ITSAgentThing" xlink:title="&lt;FONT POINT&#45;SIZE=&quot;10&quot;&gt;ITSAgentThing&lt;/FONT&gt;">
<polygon fill="none" stroke="black" points="65.25,-99.75 0,-99.75 0,-63.75 65.25,-63.75 65.25,-99.75"/>
<text xml:space="preserve" text-anchor="start" x="0" y="-77.88" font-family="sans-serif" font-size="10.00">ITSAgentThing</text>
</a>
</g>
</g>
<!-- Agent&#45;&gt;ITSAgentThing -->
<g id="edge1" class="edge">
<title>Agent&#45;&gt;ITSAgentThing</title>
<path fill="none" stroke="black" d="M57.88,-36.2C54.77,-41.69 51.25,-47.9 47.84,-53.9"/>
<polygon fill="none" stroke="black" points="44.95,-51.9 43.07,-62.32 51.04,-55.35 44.95,-51.9"/>
</g>
<!-- Role -->
<g id="node3" class="node">
<title>Role</title>
<g id="a_node3"><a xlink:href="../Role" xlink:title="&lt;FONT POINT&#45;SIZE=&quot;10&quot;&gt;Role&lt;/FONT&gt;">
<polygon fill="none" stroke="black" points="130.62,-99.75 76.62,-99.75 76.62,-63.75 130.62,-63.75 130.62,-99.75"/>
<text xml:space="preserve" text-anchor="start" x="93.5" y="-77.88" font-family="sans-serif" font-size="10.00">Role</text>
</a>
</g>
</g>
<!-- Agent&#45;&gt;Role -->
<g id="edge3" class="edge">
<title>Agent&#45;&gt;Role</title>
<path fill="none" stroke="black" d="M77.65,-36.2C80.85,-41.69 84.47,-47.9 87.97,-53.9"/>
<polygon fill="black" stroke="black" points="84.83,-55.46 92.89,-62.33 90.88,-51.93 84.83,-55.46"/>
<text xml:space="preserve" text-anchor="start" x="87.78" y="-46.2" font-family="sans-serif" font-size="9.00">playsRole all</text>
<text xml:space="preserve" text-anchor="start" x="80.15" y="-55.09" font-family="sans-serif" font-size="9.00">0..*</text>
</g>
</g>
</svg>
