<?xml version="1.0" encoding="UTF-8" standalone="no"?>
<!DOCTYPE svg PUBLIC "-//W3C//DTD SVG 1.1//EN"
 "http://www.w3.org/Graphics/SVG/1.1/DTD/svg11.dtd">
<!-- Generated by graphviz version 14.0.2 (20251019.1705)
 -->
<!-- Pages: 1 -->
<svg width="187pt" height="132pt"
 viewBox="0.00 0.00 187.00 132.00" xmlns="http://www.w3.org/2000/svg" xmlns:xlink="http://www.w3.org/1999/xlink">
<g id="graph0" class="graph" transform="scale(1 1) rotate(0) translate(4 128)">
<polygon fill="white" stroke="none" points="-4,4 -4,-128 182.75,-128 182.75,4 -4,4"/>
<g id="clust2" class="cluster">
<title>cluster_associated</title>
</g>
<!-- ITSAgentThing -->
<g id="node1" class="node">
<title>ITSAgentThing</title>
<g id="a_node1"><a xlink:href="../ITSAgentThing" xlink:title="&lt;TABLE&gt;">
<polygon fill="lightgray" stroke="none" points="6.25,-81.88 6.25,-98.12 89.25,-98.12 89.25,-81.88 6.25,-81.88"/>
<text xml:space="preserve" text-anchor="start" x="7.25" y="-85.72" font-family="Arial" font-size="12.00">ITSAgentThing</text>
<polygon fill="none" stroke="black" points="5.25,-80.88 5.25,-99.12 90.25,-99.12 90.25,-80.88 5.25,-80.88"/>
</a>
</g>
</g>
<!-- its&#45;core_ITSThing -->
<g id="node3" class="node">
<title>its&#45;core_ITSThing</title>
<g id="a_node3"><a xlink:href="https://w3id.org/itsdata/core/v1/ITSThing" xlink:title="&lt;TABLE&gt;">
<polygon fill="lightgray" stroke="none" points="1,-9.88 1,-26.12 94.5,-26.12 94.5,-9.88 1,-9.88"/>
<text xml:space="preserve" text-anchor="start" x="2" y="-13.72" font-family="Arial" font-size="12.00">its&#45;core:ITSThing</text>
<polygon fill="none" stroke="black" points="0,-8.88 0,-27.12 95.5,-27.12 95.5,-8.88 0,-8.88"/>
</a>
</g>
</g>
<!-- ITSAgentThing&#45;&gt;its&#45;core_ITSThing -->
<g id="edge1" class="edge">
<title>ITSAgentThing&#45;&gt;its&#45;core_ITSThing</title>
<path fill="none" stroke="black" d="M47.75,-72.05C47.75,-64.57 47.75,-55.58 47.75,-47.14"/>
<polygon fill="none" stroke="black" points="51.25,-47.3 47.75,-37.3 44.25,-47.3 51.25,-47.3"/>
</g>
<!-- Invis -->
</g>
</svg>
